<?xml version="1.0" encoding="UTF-8" standalone="no"?>
<!DOCTYPE svg PUBLIC "-//W3C//DTD SVG 1.1//EN" "http://www.w3.org/Graphics/SVG/1.1/DTD/svg11.dtd">
<svg width="100%" height="100%" viewBox="0 0 1509 1509" version="1.1" xmlns="http://www.w3.org/2000/svg" xmlns:xlink="http://www.w3.org/1999/xlink" xml:space="preserve" xmlns:serif="http://www.serif.com/" style="fill-rule:evenodd;clip-rule:evenodd;stroke-linejoin:round;stroke-miterlimit:2;">
    <g id="Logo---Schriftzug" serif:id="Logo + Schriftzug" transform="matrix(1,0,0,1,1710.71,310.903)">
        <rect x="-1710.71" y="-310.903" width="1508.65" height="1508.65" style="fill:none;"/>
        <g transform="matrix(1,0,0,1,-1683.97,-272.823)">
            <g transform="matrix(1,0,0,1,-27.5132,0)">
                <g transform="matrix(-1,1.22465e-16,-1.22465e-16,-1,1487.73,1194.93)">
                    <path d="M730.996,596.118L696.521,501.889C737.761,474.377 781.329,448.856 826.683,427.335L866.096,536.36C854.126,540.457 842.328,544.926 830.726,549.622C796.637,563.422 763.428,579.039 730.996,596.118Z" style="fill:white;"/>
                </g>
                <g transform="matrix(-1,1.22465e-16,-1.22465e-16,-1,1487.73,1194.93)">
                    <path d="M561.978,700.673L609.897,564.55L625.717,552.405C632.191,547.613 638.666,542.82 645.14,538.028L652.549,532.688L640.07,568.48C633.79,586.167 627.45,603.83 621.05,621.47C620.12,624.02 618.95,626.29 618.35,628.96C617.49,632.76 616.02,636.59 614.7,640.23C610.817,650.845 607.09,661.512 603.332,672.166L592.555,679.329C582.204,686.277 571.999,693.376 561.978,700.673Z" style="fill:white;"/>
                </g>
                <g transform="matrix(-1,1.22465e-16,-1.22465e-16,-1,1487.73,1194.93)">
                    <path d="M872.895,555.17L1008.75,930.98C1008.87,931.327 1009.11,931.5 1009.48,931.5L1084.25,931.5C1084.58,931.5 1084.75,931.667 1084.75,932L1084.75,957.34C1084.75,957.733 1084.55,957.93 1084.16,957.93L757.66,957.88C757.22,957.88 757,957.66 757,957.22L757,932.53C757,931.843 757.343,931.5 758.03,931.5L853.2,931.5C853.533,931.5 853.643,931.347 853.53,931.04L737.928,615.067C770.538,597.807 803.93,582.046 838.23,568.161C849.599,563.56 861.161,559.178 872.895,555.17Z" style="fill:white;"/>
                </g>
                <g transform="matrix(-1,1.22465e-16,-1.22465e-16,-1,1487.73,1194.93)">
                    <path d="M592.142,703.87C590.819,707.834 506.165,948.982 502.925,958.062C502.779,958.462 502.492,958.662 502.065,958.662L471.985,958.632C471.669,958.63 471.41,958.369 471.41,958.052C471.41,957.984 471.422,957.916 471.445,957.852L550.136,734.312L566.199,722.26C572.393,717.815 578.586,713.369 584.78,708.923L592.142,703.87Z" style="fill:white;"/>
                </g>
                <g transform="matrix(1,0,0,1,27.5132,0)">
                    <path d="M633.547,767.641C591.283,787.739 547.489,804.397 502.621,816.018C442.361,831.635 348.395,843.322 302.99,787.32C302.817,787.103 302.799,786.803 302.947,786.578L391.39,651.864C391.404,651.843 391.419,651.824 391.437,651.806C391.59,651.65 391.843,651.644 391.995,651.794C392.014,651.812 392.03,651.832 392.045,651.853C414.286,683.968 459.589,686.492 495.002,682.318C541.233,676.867 586.691,662.628 629.488,645.308C641.93,640.271 654.254,634.993 666.468,629.49C736.858,597.777 803.549,558.635 867.659,515.601C919.52,480.793 967.69,442.186 1012.17,399.779C1051.84,361.965 1088.9,319.032 1118.42,271.981C1122.07,266.17 1128.59,269.854 1126.79,276.043C1111.02,330.05 1082.25,380.359 1049.09,425.897C1002.34,490.115 934.569,555.053 887.896,598.984C877.936,608.359 864.519,619.386 850.291,630.454L735.234,957.3C735.087,957.72 734.794,957.93 734.354,957.93L703.304,957.93C702.723,957.929 702.202,957.56 702.004,957.01L633.547,767.641ZM807.648,662.29L804.674,670.82L796.571,693.955L796.57,693.956C791.465,708.523 785.89,724.032 780.754,738.57C780.743,738.597 780.727,738.622 780.706,738.643C780.622,738.729 780.484,738.734 780.402,738.654C780.381,738.633 780.364,738.608 780.354,738.58L763.704,693.071C765.494,691.877 767.275,690.683 769.052,689.486C769.287,689.329 786.012,677.912 807.648,662.29Z" style="fill:white;"/>
                </g>
            </g>
            <g transform="matrix(1,0,0,1,-11.677,-18.5698)">
                <g transform="matrix(1,0,0,1,0,2.53785)">
                    <path d="M1276.17,1140.59C1275.22,1149.11 1273.77,1157.56 1271.83,1165.93C1271.74,1166.31 1271.9,1166.5 1272.29,1166.5L1316.73,1166.5C1317.03,1166.5 1317.27,1166.75 1317.27,1167.04C1317.27,1167.07 1317.27,1167.1 1317.26,1167.13L1309.19,1211.52C1309.11,1211.94 1308.74,1212.25 1308.32,1212.25L1214.77,1212.25C1214.42,1212.25 1214.13,1211.96 1214.13,1211.61C1214.13,1211.57 1214.13,1211.54 1214.14,1211.5L1241.85,1060.56C1241.92,1060.2 1242.14,1060.02 1242.51,1060.02L1290.84,1060.33C1291.19,1060.34 1291.34,1060.51 1291.27,1060.85L1283.69,1101.64C1283.66,1101.8 1283.66,1101.96 1283.7,1102.13C1283.73,1102.26 1283.74,1102.38 1283.72,1102.49C1283.05,1105.9 1276.78,1140.22 1276.43,1140.3C1276.28,1140.33 1276.19,1140.43 1276.17,1140.59Z" style="fill:white;fill-rule:nonzero;"/>
                </g>
                <g transform="matrix(1,0,0,1,0,2.5378)">
                    <path d="M1164.57,1150.14C1166.81,1139.32 1168.43,1128.36 1170.79,1117.57C1171.2,1115.71 1171.46,1113.83 1171.55,1111.93C1171.68,1109.5 1172.52,1107.7 1172.89,1105.67C1175.61,1090.72 1178.35,1075.75 1181.12,1060.75C1181.17,1060.47 1181.06,1060.33 1180.78,1060.33L1132.38,1060.05C1132.05,1060.05 1131.77,1060.28 1131.71,1060.6L1103.86,1211.87C1103.86,1211.89 1103.85,1211.91 1103.85,1211.93C1103.85,1212.11 1104,1212.25 1104.17,1212.25C1104.18,1212.25 1104.18,1212.25 1104.18,1212.25L1198.29,1212.25C1198.61,1212.25 1198.89,1212.02 1198.95,1211.7L1207.17,1167.11C1207.17,1167.1 1207.17,1167.08 1207.18,1167.07C1207.2,1166.78 1206.99,1166.53 1206.71,1166.5C1206.7,1166.5 1206.68,1166.5 1206.67,1166.5L1162.47,1166.5C1162.04,1166.5 1161.86,1166.29 1161.92,1165.86C1162.21,1163.77 1164.95,1151.45 1164.63,1150.71C1164.55,1150.53 1164.53,1150.34 1164.57,1150.14" style="fill:white;fill-rule:nonzero;"/>
                </g>
                <g transform="matrix(1,0,0,1,0,2.53786)">
                    <path d="M1059.26,1060.06L1107.58,1060.33C1107.92,1060.33 1108.06,1060.5 1108,1060.83L1080.35,1211.78C1080.29,1212.09 1080.1,1212.25 1079.79,1212.25L1031.25,1212.25C1030.92,1212.25 1030.79,1212.09 1030.85,1211.77L1058.64,1060.57C1058.7,1060.22 1058.91,1060.05 1059.26,1060.06Z" style="fill:white;fill-rule:nonzero;"/>
                </g>
                <g transform="matrix(1,0,0,1,0,2.53786)">
                    <path d="M948.86,1161.89L945.47,1162.04C945.163,1162.06 944.98,1162.22 944.92,1162.52L935.89,1211.72C935.823,1212.07 935.613,1212.25 935.26,1212.25L888,1212.25C887.68,1212.25 887.55,1212.09 887.61,1211.77L915.39,1060.47C915.443,1060.18 915.698,1059.97 915.99,1059.98C932.083,1060.19 948.257,1060.21 964.51,1060.05C985.31,1059.84 1015.99,1059.5 1026.2,1082.63C1031.33,1094.25 1029.79,1110.11 1025.82,1122.08C1020.29,1138.77 1008.77,1145.45 993.13,1151.22C992.767,1151.36 992.525,1151.7 992.525,1152.09C992.525,1152.27 992.575,1152.44 992.67,1152.59C996.463,1158.6 999.85,1164.98 1002.83,1171.71C1008.77,1185.12 1014.7,1198.43 1020.61,1211.64C1020.79,1212.05 1020.66,1212.25 1020.21,1212.25L968.1,1212.25C967.753,1212.25 967.523,1212.09 967.41,1211.76L949.57,1162.37C949.45,1162.04 949.213,1161.88 948.86,1161.89ZM979.67,1107.45C978.35,1097.86 964.1,1098.08 957.24,1098.63C956.86,1098.66 956.637,1098.86 956.57,1099.23L951.17,1128.72C951.097,1129.11 951.257,1129.32 951.65,1129.35C966.47,1130.71 982.28,1126.37 979.67,1107.45Z" style="fill:white;fill-rule:nonzero;"/>
                </g>
                <path d="M828.25,1157L804.47,1157C804.11,1157 803.96,1156.82 804.02,1156.47L809.82,1125.04C809.887,1124.68 810.103,1124.5 810.47,1124.5L887.98,1124.5C888.3,1124.5 888.433,1124.66 888.38,1124.97C886.873,1133.72 884.843,1142.32 882.29,1150.75C872.6,1182.69 844.59,1205.1 812.43,1212.4C765.01,1223.16 720.84,1197.08 727.18,1143.77C732.82,1096.31 769.14,1060.82 816.93,1057.87C843.22,1056.25 875.9,1067.25 885.66,1093.75C885.8,1094.12 885.683,1094.37 885.31,1094.5L836.22,1112.26C835.873,1112.39 835.613,1112.28 835.44,1111.95C832.293,1105.98 827.707,1102.52 821.68,1101.57C777,1094.51 758.79,1174.12 800.49,1175C812.45,1175.25 824.45,1169.29 828.64,1157.55C828.767,1157.18 828.637,1157 828.25,1157Z" style="fill:white;fill-rule:nonzero;"/>
                <g transform="matrix(1,0,0,1,0,0.292122)">
                    <path d="M581.8,1204.9C551.02,1186.03 548.81,1149.36 561.17,1118.81C570.61,1095.5 586.643,1078.34 609.27,1067.35C662.1,1041.69 728.04,1068.2 715.41,1136.09C705.52,1189.28 657.07,1221.58 604.07,1213.17C596.163,1211.92 588.74,1209.16 581.8,1204.9ZM610.54,1123.54C601.51,1139.51 602.03,1167.43 626.51,1169.39C640.24,1170.49 651.57,1164.61 659.17,1153.24C667.93,1140.15 669.82,1116.47 653.68,1107.83C637.7,1099.28 618.74,1109.02 610.54,1123.54Z" style="fill:white;fill-rule:nonzero;"/>
                </g>
                <g transform="matrix(1,0,0,1,-667.288,2.5378)">
                    <path d="M1164.63,1150.71C1164.95,1151.45 1162.21,1163.77 1161.92,1165.86C1161.86,1166.29 1162.04,1166.5 1162.47,1166.5L1206.67,1166.5C1206.68,1166.5 1206.7,1166.5 1206.71,1166.5C1206.99,1166.53 1207.2,1166.78 1207.18,1167.07C1207.17,1167.08 1207.17,1167.1 1207.17,1167.11L1198.95,1211.7C1198.89,1212.02 1198.61,1212.25 1198.29,1212.25L1104.18,1212.25C1104.18,1212.25 1104.18,1212.25 1104.17,1212.25C1104,1212.25 1103.85,1212.11 1103.85,1211.93C1103.85,1211.91 1103.86,1211.89 1103.86,1211.87L1131.71,1060.6C1131.77,1060.28 1132.05,1060.05 1132.38,1060.05L1180.78,1060.33C1181.06,1060.33 1181.17,1060.47 1181.12,1060.75C1178.35,1075.75 1175.61,1090.72 1172.89,1105.67C1172.52,1107.7 1171.68,1109.5 1171.55,1111.93C1171.46,1113.83 1171.2,1115.71 1170.79,1117.57C1168.43,1128.36 1166.81,1139.32 1164.57,1150.14C1164.53,1150.34 1164.55,1150.53 1164.63,1150.71Z" style="fill:white;fill-rule:nonzero;"/>
                </g>
                <g transform="matrix(1,0,0,1,-391.221,-207.743)">
                    <g transform="matrix(1,0,0,1,-513.28,210.281)">
                        <path d="M1328.93,1101.8C1328.93,1101.83 1283.42,1102.3 1283.42,1102.3C1283.42,1102.3 1273.48,1158.82 1271.83,1165.93C1271.74,1166.31 1271.9,1166.5 1272.29,1166.5L1316.73,1166.5C1317.03,1166.5 1317.27,1166.75 1317.27,1167.04C1317.27,1167.07 1317.27,1167.1 1317.26,1167.13L1309.19,1211.52C1309.11,1211.94 1308.74,1212.25 1308.32,1212.25L1214.77,1212.25C1214.42,1212.25 1214.13,1211.96 1214.13,1211.61C1214.13,1211.57 1214.13,1211.54 1214.14,1211.5L1241.85,1060.56C1241.92,1060.2 1242.14,1060.02 1242.51,1060.02C1242.51,1060.02 1336.28,1059.88 1336.21,1060.22L1328.93,1101.8Z" style="fill:white;fill-rule:nonzero;"/>
                    </g>
                    <g transform="matrix(1,0,0,1,-10.2703,-3.59382)">
                        <path d="M765.935,1337.71L813.191,1337.71L809.356,1358.66L761.955,1358.86L765.935,1337.71Z" style="fill:white;"/>
                    </g>
                </g>
                <g transform="matrix(-1,0,0,-1,431.105,2274.76)">
                    <path d="M186.85,1159.54L164.13,1212.04C164.075,1212.17 163.949,1212.25 163.81,1212.25L112.6,1212.25C112.408,1212.25 112.251,1212.09 112.251,1211.9C112.251,1211.84 112.265,1211.79 112.29,1211.74L190.01,1060.16C190.07,1060.04 190.189,1059.97 190.32,1059.97L246.11,1060.23C246.285,1060.23 246.435,1060.36 246.46,1060.53L269.85,1211.85C269.852,1211.87 269.854,1211.88 269.854,1211.9C269.854,1212.09 269.696,1212.25 269.504,1212.25C269.502,1212.25 269.501,1212.25 269.5,1212.25L217.83,1212.25C217.649,1212.25 213.69,1159.65 213.69,1159.65L186.85,1159.54ZM209.88,1105.82C209.873,1105.64 209.727,1105.5 209.55,1105.5C209.412,1105.5 209.287,1105.59 209.24,1105.72L186.85,1159.54C186.832,1159.58 213.69,1159.66 213.69,1159.65L209.88,1105.82Z" style="fill:white;fill-rule:nonzero;"/>
                </g>
            </g>
        </g>
    </g>
</svg>
